<?xml version="1.0" encoding="UTF-8" standalone="no"?>
<svg xmlns:dc="http://purl.org/dc/elements/1.1/" xmlns:cc="http://creativecommons.org/ns#" xmlns:rdf="http://www.w3.org/1999/02/22-rdf-syntax-ns#" xmlns:svg="http://www.w3.org/2000/svg" xmlns="http://www.w3.org/2000/svg" xmlns:xlink="http://www.w3.org/1999/xlink" xmlns:sodipodi="http://sodipodi.sourceforge.net/DTD/sodipodi-0.dtd" xmlns:inkscape="http://www.inkscape.org/namespaces/inkscape" fill="#e73030" version="1.1" viewBox="0 0 63.995391 64.029371" id="svg18" sodipodi:docname="app-logo-64.svg" width="63.995388" height="64.029373" inkscape:version="1.0.2-2 (e86c870879, 2021-01-15)"><metadata id="metadata24">
  <rdf:RDF>
    <cc:Work rdf:about="">
      <dc:format>image/svg+xml</dc:format>
      <dc:type rdf:resource="http://purl.org/dc/dcmitype/StillImage" />
      <dc:title></dc:title>
    </cc:Work>
  </rdf:RDF>
</metadata>
<defs id="defs22">
  <linearGradient inkscape:collect="always" id="linearGradient3815">
    <stop style="stop-color:#e73030;stop-opacity:1;" offset="0" id="stop3811" />
    <stop style="stop-color:#e73030;stop-opacity:0;" offset="1" id="stop3813" />
  </linearGradient>
  <linearGradient inkscape:collect="always" id="linearGradient3807">
    <stop style="stop-color:#790000;stop-opacity:1;" offset="0" id="stop3803" />
    <stop style="stop-color:#790000;stop-opacity:0;" offset="1" id="stop3805" />
  </linearGradient>
  <radialGradient inkscape:collect="always" xlink:href="#linearGradient3807" id="radialGradient3809" cx="390.57977" cy="760.6189" fx="390.57977" fy="760.6189" r="252.55786" gradientTransform="matrix(1,0,0,0.60078692,0,90.396148)" gradientUnits="userSpaceOnUse" />
  <linearGradient inkscape:collect="always" xlink:href="#linearGradient3815" id="linearGradient3817" x1="396.04453" y1="210.03636" x2="390.57977" y2="547.36603" gradientUnits="userSpaceOnUse" />
  <linearGradient inkscape:collect="always" xlink:href="#linearGradient3815" id="linearGradient3819" gradientUnits="userSpaceOnUse" x1="396.04453" y1="210.03636" x2="390.57977" y2="547.36603" />
  <radialGradient inkscape:collect="always" xlink:href="#linearGradient3807" id="radialGradient3821" gradientUnits="userSpaceOnUse" gradientTransform="matrix(1,0,0,0.60078692,0,90.396148)" cx="390.57977" cy="760.6189" fx="390.57977" fy="760.6189" r="252.55786" />
  <linearGradient inkscape:collect="always" xlink:href="#linearGradient3815" id="linearGradient3823" gradientUnits="userSpaceOnUse" x1="396.04453" y1="210.03636" x2="390.57977" y2="547.36603" />
  <radialGradient inkscape:collect="always" xlink:href="#linearGradient3807" id="radialGradient3825" gradientUnits="userSpaceOnUse" gradientTransform="matrix(1,0,0,0.60078692,0,90.396148)" cx="390.57977" cy="760.6189" fx="390.57977" fy="760.6189" r="252.55786" />
  <linearGradient inkscape:collect="always" xlink:href="#linearGradient3815" id="linearGradient3827" gradientUnits="userSpaceOnUse" x1="396.04453" y1="210.03636" x2="390.57977" y2="547.36603" />
  <radialGradient inkscape:collect="always" xlink:href="#linearGradient3807" id="radialGradient3829" gradientUnits="userSpaceOnUse" gradientTransform="matrix(1,0,0,0.60078692,0,90.396148)" cx="390.57977" cy="760.6189" fx="390.57977" fy="760.6189" r="252.55786" />
  <linearGradient inkscape:collect="always" xlink:href="#linearGradient3815" id="linearGradient3831" gradientUnits="userSpaceOnUse" x1="396.04453" y1="210.03636" x2="390.57977" y2="547.36603" />
  <radialGradient inkscape:collect="always" xlink:href="#linearGradient3807" id="radialGradient3833" gradientUnits="userSpaceOnUse" gradientTransform="matrix(1,0,0,0.60078692,0,90.396148)" cx="390.57977" cy="760.6189" fx="390.57977" fy="760.6189" r="252.55786" />
  <linearGradient inkscape:collect="always" xlink:href="#linearGradient3815" id="linearGradient3835" gradientUnits="userSpaceOnUse" x1="396.04453" y1="210.03636" x2="390.57977" y2="547.36603" />
  <radialGradient inkscape:collect="always" xlink:href="#linearGradient3807" id="radialGradient3837" gradientUnits="userSpaceOnUse" gradientTransform="matrix(1,0,0,0.60078692,0,90.396148)" cx="390.57977" cy="760.6189" fx="390.57977" fy="760.6189" r="252.55786" />
  <linearGradient inkscape:collect="always" xlink:href="#linearGradient3815" id="linearGradient3839" gradientUnits="userSpaceOnUse" x1="396.04453" y1="210.03636" x2="390.57977" y2="547.36603" />
  <radialGradient inkscape:collect="always" xlink:href="#linearGradient3807" id="radialGradient3841" gradientUnits="userSpaceOnUse" gradientTransform="matrix(1,0,0,0.60078692,0,90.396148)" cx="390.57977" cy="760.6189" fx="390.57977" fy="760.6189" r="252.55786" />
  <linearGradient inkscape:collect="always" xlink:href="#linearGradient3815" id="linearGradient3843" gradientUnits="userSpaceOnUse" x1="396.04453" y1="210.03636" x2="390.57977" y2="547.36603" />
  <radialGradient inkscape:collect="always" xlink:href="#linearGradient3807" id="radialGradient3845" gradientUnits="userSpaceOnUse" gradientTransform="matrix(1,0,0,0.60078692,0,90.396148)" cx="390.57977" cy="760.6189" fx="390.57977" fy="760.6189" r="252.55786" />
</defs>
<sodipodi:namedview pagecolor="#ffffff" bordercolor="#666666" borderopacity="1" objecttolerance="10" gridtolerance="10" guidetolerance="10" inkscape:pageopacity="0" inkscape:pageshadow="2" inkscape:window-width="1920" inkscape:window-height="1046" id="namedview20" showgrid="false" inkscape:zoom="4.9653725" inkscape:cx="35.649963" inkscape:cy="11.452709" inkscape:window-x="-11" inkscape:window-y="-11" inkscape:window-maximized="1" inkscape:current-layer="svg18" inkscape:document-rotation="0" />
<g id="g16" transform="matrix(0.07918978,0,0,0.1318101,1.0714634,3.1534759)" style="fill:url(#linearGradient3817);fill-opacity:1;stroke:url(#radialGradient3809);stroke-opacity:1">
  <g class="prd-logo" id="g14" transform="matrix(0.62945138,0,0,0.65807931,150.96567,75.031643)" style="fill:url(#linearGradient3843);fill-opacity:1;stroke:url(#radialGradient3845);stroke-opacity:1">
    <path d="m 209.39,272.17 41.22,-127 a 109,109 0 0 1 -12.29,9.62 62.68,62.68 0 0 1 -35.32,10.45 c -26.63,-0.23 -53.27,0 -79.9,-0.12 -2.41,0 -3.38,0.68 -4.14,3 -10.83,33.67 -21.83,67.28 -32.66,101 -0.81,2.53 -1.93,3.13 -4.43,3.12 q -39.45,-0.14 -78.9,0 c -3,0 -3.51,-0.54 -2.58,-3.39 Q 20,209.08 39.35,149.25 53.68,105.15 67.91,61 c 0.75,-2.35 1.84,-3 4.22,-3 56.39,0.07 112.78,-0.09 169.17,0.16 13.52,0.06 24.4,6 31.57,18.44 1.71,-5.24 3.51,-10.18 4.9,-15.25 0.72,-2.63 1.9,-3.37 4.61,-3.36 q 69.71,0.14 139.41,0.06 h 30.42 a 57.81,57.81 0 0 1 13.25,1.47 c 14.18,3.29 20.73,13.11 17.38,27.27 -2.66,11.25 -6.58,22.18 -10.59,33 -2.51,6.82 -7.95,11.44 -14,15.29 -7.66,4.91 -16.05,8.12 -24.73,10.68 -1.35,0.4 -2.68,0.85 -4.55,1.45 7.66,2.8 14.63,5.42 20.15,10.78 5.77,5.61 7.37,12.17 4.87,19.83 Q 438.69,225 423.4,272.09 a 63.23,63.23 0 0 0 -2.74,11.67 c -1.27,9.87 2.8,16.88 12.08,20.59 7.39,2.95 15.16,3.36 23,3.37 h 165.47 c 4.59,0 4.62,0 3.25,4.24 q -16.19,50 -32.35,100 c -0.74,2.3 -1.78,3.06 -4.21,3.06 q -126.54,-0.11 -253.08,-0.05 a 35.11,35.11 0 0 1 -23.56,-8.79 c -8.94,-7.66 -11.57,-17.28 -8,-28.31 10.16,-31.77 20.53,-63.48 30.86,-95.21 q 18.59,-57.1 37.28,-114.17 c 1,-3 0.24,-3.4 -2.61,-3.36 q -17.72,0.22 -35.44,0 c -2.54,0 -3.66,0.69 -4.45,3.14 -10.69,33.25 -21.55,66.44 -32.18,99.7 -1.07,3.36 -2.46,4.34 -5.95,4.32 -25.74,-0.17 -51.49,-0.09 -77.23,-0.09 z m -56,-142.78 c 6.24,0 12.47,-0.06 18.7,0 1.86,0 2.79,-0.55 3.35,-2.37 q 4.77,-15.27 9.75,-30.47 c 0.75,-2.27 0.32,-2.91 -2.09,-2.89 q -18.7,0.14 -37.4,0 c -1.88,0 -2.75,0.56 -3.31,2.38 q -4.74,15.29 -9.71,30.48 c -0.72,2.18 -0.43,2.93 2,2.88 6.32,-0.09 12.52,-0.01 18.75,-0.01 z m 242.1,-35.65 h -40.77 c -1.7,0 -2,1.11 -2.34,2.28 -3.4,10.23 -6.77,20.48 -10.23,30.69 -0.66,1.95 -0.53,2.77 1.87,2.75 q 18.7,-0.13 37.41,0 A 2.94,2.94 0 0 0 384.8,127 c 1.59,-5.21 3.33,-10.37 5,-15.55 1.88,-5.77 3.75,-11.56 5.73,-17.71 z" id="path2" style="fill:url(#linearGradient3819);fill-opacity:1;stroke:url(#radialGradient3821);stroke-opacity:1" />
    <path d="m 563.88,274.06 h -60.5 c -6,0 -12,-0.68 -17.63,-3.08 -13.29,-5.63 -19.7,-18.8 -15.38,-32.58 7.63,-24.29 15.44,-48.53 23.26,-72.76 2.84,-8.79 8.63,-15.51 15.87,-21 12.68,-9.58 26.63,-15.4 42.94,-14.87 11.91,0.39 23.84,0 35.76,0.13 2.36,0 3.44,-0.6 4.21,-3 C 599.59,104.92 607,83 614.16,61 c 0.79,-2.39 1.83,-3.25 4.42,-3.24 q 39.95,0.16 79.88,0 c 3,0 3.17,0.81 2.34,3.35 Q 679,128 657.27,195 c -8.17,25.17 -16.36,50.33 -24.4,75.54 -0.91,2.83 -2.2,3.64 -5.15,3.62 -21.28,-0.16 -42.56,-0.1 -63.84,-0.1 z m -38,-72.22 h 40.27 a 2.35,2.35 0 0 0 2.56,-2 c 3.39,-10.47 6.78,-20.95 10.25,-31.4 0.6,-1.81 0.57,-2.58 -1.68,-2.56 -12.59,0.07 -25.18,0.05 -37.78,0 -1.39,0 -2.28,0.3 -2.74,1.74 -3.58,11.28 -7.17,22.49 -10.91,34.22 z" id="path4" style="fill:url(#linearGradient3823);fill-opacity:1;stroke:url(#radialGradient3825);stroke-opacity:1" />
    <path d="m 590.11,421.29 c -1.19,5.06 -2.33,9.59 -3.29,14.15 -0.33,1.54 -1.08,2.05 -2.53,1.91 a 15.49,15.49 0 0 0 -1.67,0 q -122,0 -244,0.08 c -3.25,0 -4.27,-0.77 -4,-4 a 83.72,83.72 0 0 0 0,-10 c 0,-1.56 0.41,-2.32 2.05,-2.12 a 13.29,13.29 0 0 0 1.67,0 h 251.77 z" id="path6" style="fill:url(#linearGradient3827);fill-opacity:1;stroke:url(#radialGradient3829);stroke-opacity:1" />
    <path d="m 459.7,444 q 60.82,0 121.65,-0.07 c 2.93,0 3.6,0.61 2.83,3.42 a 85.12,85.12 0 0 0 -2,10.15 c -0.28,1.9 -1,2.86 -3,2.56 a 8.43,8.43 0 0 0 -1.33,0 q -119.65,0 -239.31,0.08 c -3.25,0 -4.25,-0.78 -4,-4 a 83.71,83.71 0 0 0 0,-10 c 0,-1.55 0.41,-2.29 2.05,-2.11 a 22.82,22.82 0 0 0 2.34,0 z" id="path8" style="fill:url(#linearGradient3831);fill-opacity:1;stroke:url(#radialGradient3833);stroke-opacity:1" />
    <path d="M 801.44,33.41 A 33.44,33.44 0 1 1 768.15,0 33.35,33.35 0 0 1 801.44,33.41 Z m -33.89,28 c 15.2,0.36 28,-11.95 28.39,-27.38 C 796.35,18.86 784.06,6.03 768.65,5.54 753.41,5 740.39,17.57 740.07,33.05 739.75,48.2 752.18,61 767.55,61.37 Z" id="path10" style="fill:url(#linearGradient3835);fill-opacity:1;stroke:url(#radialGradient3837);stroke-opacity:1" />
    <path d="m 749.5,50.82 c 3.07,-9.43 6,-18.48 8.94,-27.55 0.44,-1.4 1.34,-1.55 2.53,-1.54 7,0 14,-0.08 21,0.05 4,0.08 5.33,2 4.23,5.85 -2.15,7.45 -4,8.81 -11.86,8.81 -8.38,0 -8.38,0 -11,7.89 -2.12,6.49 -2.12,6.49 -8.86,6.49 z m 25,-24 a 32.88,32.88 0 0 0 -4.34,0 c -2.06,0.29 -1.93,2.27 -2.11,3.62 -0.21,1.66 1.38,0.83 2.18,1 3.68,0.7 3.77,-2.05 4.32,-4.67 z" id="path12" style="fill:url(#linearGradient3839);fill-opacity:1;stroke:url(#radialGradient3841);stroke-opacity:1" />
  </g>
</g>

/&gt;
</svg>
